<?xml version="1.0" encoding="UTF-8"?>
<svg xmlns="http://www.w3.org/2000/svg" xmlns:xlink="http://www.w3.org/1999/xlink" width="180px" height="180px" viewBox="0 0 180 180" version="1.1">
<g id="surface1">
<path style=" stroke:none;fill-rule:nonzero;fill:rgb(96.078431%,21.960784%,21.960784%);fill-opacity:1;" d="M 160.1875 66.394531 L 160.074219 66.289062 C 160.066406 66.28125 160.058594 66.273438 160.054688 66.265625 L 90.003906 0 L 19.953125 66.265625 C 19.945312 66.273438 19.933594 66.285156 19.933594 66.285156 L 19.816406 66.394531 C 9.105469 76.582031 2.300781 89.867188 0.488281 104.132812 C -1.328125 118.402344 1.953125 132.832031 9.804688 145.132812 C 17.65625 157.4375 29.628906 166.902344 43.820312 172.027344 C 58.011719 177.152344 73.609375 177.644531 88.128906 173.421875 C 89.347656 173.066406 90.65625 173.066406 91.878906 173.421875 C 106.394531 177.640625 121.992188 177.152344 136.183594 172.023438 C 150.371094 166.898438 162.34375 157.433594 170.195312 145.132812 C 178.046875 132.832031 181.328125 118.402344 179.511719 104.132812 C 177.699219 89.867188 170.898438 76.582031 160.1875 66.394531 Z M 44.863281 110.089844 C 44.519531 110.414062 44.25 110.796875 44.066406 111.21875 C 43.882812 111.640625 43.785156 112.089844 43.785156 112.546875 C 43.910156 124.242188 47.40625 135.683594 53.894531 145.640625 C 54.039062 145.867188 54.109375 146.128906 54.085938 146.394531 C 54.066406 146.660156 53.957031 146.910156 53.777344 147.113281 C 53.59375 147.316406 53.351562 147.457031 53.078125 147.523438 C 52.804688 147.585938 52.519531 147.566406 52.257812 147.464844 C 47.382812 145.523438 42.953125 142.703125 39.214844 139.160156 C 31.558594 131.917969 27.253906 122.09375 27.246094 111.847656 C 27.242188 101.605469 31.53125 91.777344 39.179688 84.523438 L 90.003906 36.449219 L 140.824219 84.523438 C 148.472656 91.777344 152.765625 101.605469 152.757812 111.847656 C 152.753906 122.09375 148.445312 131.917969 140.789062 139.160156 C 137.054688 142.703125 132.621094 145.523438 127.746094 147.464844 C 127.484375 147.566406 127.199219 147.585938 126.925781 147.523438 C 126.65625 147.457031 126.410156 147.316406 126.230469 147.113281 C 126.046875 146.910156 125.9375 146.660156 125.917969 146.394531 C 125.898438 146.128906 125.964844 145.863281 126.113281 145.640625 C 132.601562 135.683594 136.097656 124.242188 136.222656 112.546875 C 136.222656 112.089844 136.128906 111.640625 135.941406 111.21875 C 135.757812 110.796875 135.484375 110.414062 135.144531 110.089844 L 111.105469 85.96875 C 110.863281 85.78125 110.5625 85.679688 110.25 85.679688 C 109.941406 85.679688 109.636719 85.78125 109.398438 85.96875 C 109.160156 86.160156 109 86.421875 108.941406 86.710938 C 108.886719 87 108.941406 87.300781 109.09375 87.558594 C 118.429688 103.539062 110.402344 126.496094 97.011719 139.160156 L 96.941406 139.226562 C 95.09375 140.957031 92.601562 141.925781 90 141.925781 C 87.402344 141.925781 84.90625 140.953125 83.0625 139.222656 L 82.996094 139.160156 C 69.601562 126.496094 61.578125 103.542969 70.917969 87.558594 C 71.070312 87.304688 71.125 87.003906 71.066406 86.714844 C 71.011719 86.425781 70.851562 86.160156 70.609375 85.972656 C 70.371094 85.785156 70.070312 85.679688 69.757812 85.679688 C 69.445312 85.679688 69.144531 85.785156 68.90625 85.972656 Z M 44.863281 110.089844 "/>
</g>
</svg>
