<?xml version="1.0" encoding="UTF-8"?>
<svg xmlns="http://www.w3.org/2000/svg" xmlns:xlink="http://www.w3.org/1999/xlink" width="192px" height="192px" viewBox="0 0 192 192" version="1.1">
<g id="surface1">
<path style=" stroke:none;fill-rule:nonzero;fill:rgb(96.078431%,21.960784%,21.960784%);fill-opacity:1;" d="M 170.863281 70.820312 L 170.746094 70.707031 C 170.734375 70.699219 170.730469 70.691406 170.722656 70.683594 L 96.003906 0 L 21.285156 70.679688 C 21.273438 70.691406 21.261719 70.707031 21.261719 70.707031 L 21.136719 70.820312 C 9.710938 81.6875 2.457031 95.855469 0.519531 111.074219 C -1.414062 126.292969 2.082031 141.6875 10.457031 154.808594 C 18.832031 167.933594 31.605469 178.027344 46.742188 183.496094 C 61.878906 188.960938 78.515625 189.488281 94.003906 184.984375 C 95.304688 184.605469 96.699219 184.605469 98.003906 184.984375 C 113.488281 189.484375 130.125 188.960938 145.261719 183.492188 C 160.398438 178.027344 173.167969 167.929688 181.542969 154.808594 C 189.917969 141.6875 193.414062 126.292969 191.480469 111.078125 C 189.546875 95.859375 182.289062 81.6875 170.863281 70.820312 Z M 47.851562 117.429688 C 47.488281 117.773438 47.199219 118.183594 47.003906 118.632812 C 46.808594 119.082031 46.707031 119.5625 46.707031 120.050781 C 46.839844 132.523438 50.566406 144.730469 57.484375 155.347656 C 57.644531 155.589844 57.714844 155.871094 57.691406 156.152344 C 57.671875 156.4375 57.554688 156.703125 57.363281 156.921875 C 57.167969 157.136719 56.90625 157.289062 56.617188 157.355469 C 56.328125 157.425781 56.019531 157.402344 55.742188 157.296875 C 50.542969 155.226562 45.816406 152.21875 41.832031 148.4375 C 33.664062 140.710938 29.070312 130.234375 29.0625 119.304688 C 29.054688 108.378906 33.632812 97.894531 41.789062 90.160156 L 96.003906 38.882812 L 150.214844 90.160156 C 158.371094 97.894531 162.949219 108.378906 162.941406 119.304688 C 162.9375 130.234375 158.34375 140.710938 150.175781 148.4375 C 146.191406 152.21875 141.464844 155.226562 136.261719 157.296875 C 135.984375 157.402344 135.679688 157.425781 135.386719 157.355469 C 135.097656 157.289062 134.835938 157.136719 134.644531 156.921875 C 134.449219 156.703125 134.335938 156.4375 134.3125 156.152344 C 134.289062 155.871094 134.363281 155.589844 134.519531 155.347656 C 141.441406 144.730469 145.171875 132.523438 145.304688 120.050781 C 145.304688 119.5625 145.203125 119.082031 145.003906 118.632812 C 144.808594 118.183594 144.519531 117.773438 144.152344 117.429688 L 118.511719 91.703125 C 118.257812 91.5 117.933594 91.390625 117.601562 91.390625 C 117.269531 91.390625 116.949219 91.5 116.691406 91.703125 C 116.4375 91.902344 116.265625 92.183594 116.207031 92.492188 C 116.144531 92.800781 116.203125 93.121094 116.367188 93.394531 C 126.324219 110.441406 117.761719 134.929688 103.480469 148.4375 L 103.40625 148.511719 C 101.433594 150.355469 98.773438 151.386719 96 151.386719 C 93.230469 151.386719 90.566406 150.351562 88.597656 148.503906 L 88.53125 148.4375 C 74.242188 134.929688 65.683594 110.445312 75.644531 93.398438 C 75.808594 93.125 75.863281 92.804688 75.804688 92.496094 C 75.746094 92.1875 75.574219 91.90625 75.316406 91.707031 C 75.0625 91.503906 74.742188 91.394531 74.410156 91.394531 C 74.078125 91.394531 73.753906 91.503906 73.5 91.707031 Z M 47.851562 117.429688 "/>
</g>
</svg>
