<?xml version="1.0" encoding="UTF-8"?>
<svg xmlns="http://www.w3.org/2000/svg" xmlns:xlink="http://www.w3.org/1999/xlink" width="64px" height="64px" viewBox="0 0 64 67" version="1.1">
<g id="surface1">
<path style=" stroke:none;fill-rule:nonzero;fill:rgb(96.078431%,21.960784%,21.960784%);fill-opacity:1;" d="M 56.953125 24.714844 L 56.914062 24.675781 C 56.910156 24.671875 56.910156 24.667969 56.90625 24.664062 L 32 0 L 7.09375 24.664062 C 7.089844 24.667969 7.085938 24.671875 7.085938 24.671875 L 7.046875 24.710938 C 3.238281 28.503906 0.820312 33.449219 0.171875 38.761719 C -0.472656 44.070312 0.695312 49.441406 3.484375 54.023438 C 6.277344 58.601562 10.535156 62.125 15.582031 64.03125 C 20.625 65.941406 26.171875 66.121094 31.335938 64.550781 C 31.769531 64.417969 32.234375 64.417969 32.667969 64.550781 C 37.828125 66.121094 43.375 65.941406 48.421875 64.03125 C 53.464844 62.125 57.722656 58.601562 60.515625 54.023438 C 63.304688 49.441406 64.472656 44.070312 63.828125 38.761719 C 63.183594 33.449219 60.761719 28.507812 56.953125 24.714844 Z M 15.949219 40.976562 C 15.828125 41.097656 15.734375 41.242188 15.667969 41.398438 C 15.601562 41.554688 15.570312 41.722656 15.570312 41.890625 C 15.613281 46.246094 16.855469 50.503906 19.160156 54.210938 C 19.214844 54.292969 19.238281 54.394531 19.230469 54.492188 C 19.222656 54.589844 19.183594 54.683594 19.121094 54.757812 C 19.054688 54.835938 18.96875 54.886719 18.871094 54.910156 C 18.777344 54.933594 18.671875 54.925781 18.582031 54.890625 C 16.847656 54.167969 15.273438 53.117188 13.945312 51.796875 C 11.222656 49.101562 9.691406 45.445312 9.6875 41.632812 C 9.683594 37.820312 11.210938 34.160156 13.929688 31.460938 L 32 13.566406 L 50.070312 31.460938 C 52.789062 34.160156 54.316406 37.820312 54.3125 41.632812 C 54.3125 45.445312 52.78125 49.101562 50.058594 51.796875 C 48.730469 53.117188 47.15625 54.167969 45.421875 54.890625 C 45.328125 54.925781 45.226562 54.933594 45.128906 54.910156 C 45.03125 54.886719 44.945312 54.832031 44.882812 54.757812 C 44.816406 54.683594 44.777344 54.589844 44.769531 54.492188 C 44.761719 54.394531 44.789062 54.292969 44.839844 54.210938 C 47.148438 50.503906 48.390625 46.246094 48.433594 41.890625 C 48.433594 41.722656 48.402344 41.554688 48.335938 41.398438 C 48.269531 41.242188 48.171875 41.097656 48.050781 40.976562 L 39.503906 32 C 39.417969 31.929688 39.3125 31.890625 39.199219 31.890625 C 39.089844 31.890625 38.984375 31.929688 38.898438 32 C 38.8125 32.070312 38.753906 32.167969 38.734375 32.277344 C 38.714844 32.382812 38.734375 32.496094 38.789062 32.589844 C 42.109375 38.539062 39.253906 47.085938 34.492188 51.796875 L 34.46875 51.824219 C 33.8125 52.46875 32.925781 52.828125 32 52.828125 C 31.078125 52.828125 30.1875 52.464844 29.53125 51.820312 L 29.511719 51.796875 C 24.746094 47.085938 21.894531 38.539062 25.214844 32.59375 C 25.269531 32.496094 25.289062 32.386719 25.269531 32.277344 C 25.25 32.167969 25.191406 32.070312 25.105469 32 C 25.019531 31.929688 24.914062 31.890625 24.804688 31.890625 C 24.691406 31.890625 24.585938 31.929688 24.5 32 Z M 15.949219 40.976562 "/>
</g>
</svg>
