<?xml version="1.0" encoding="UTF-8"?>
<svg xmlns="http://www.w3.org/2000/svg" xmlns:xlink="http://www.w3.org/1999/xlink" width="512px" height="512px" viewBox="0 0 512 512" version="1.1">
<g id="surface1">
<path style=" stroke:none;fill-rule:nonzero;fill:rgb(96.078431%,21.960784%,21.960784%);fill-opacity:1;" d="M 455.640625 188.855469 L 455.320312 188.554688 C 455.296875 188.535156 455.277344 188.515625 455.261719 188.488281 L 256.007812 0 L 56.757812 188.484375 C 56.734375 188.507812 56.699219 188.550781 56.699219 188.550781 L 56.367188 188.851562 C 25.898438 217.832031 6.546875 255.621094 1.386719 296.203125 C -3.773438 336.785156 5.554688 377.832031 27.886719 412.824219 C 50.222656 447.820312 84.277344 474.746094 124.644531 489.324219 C 165.011719 503.902344 209.371094 505.296875 250.675781 493.285156 C 254.148438 492.28125 257.863281 492.28125 261.339844 493.285156 C 302.640625 505.292969 346.996094 503.898438 387.363281 489.316406 C 427.726562 474.734375 461.78125 447.808594 484.113281 412.820312 C 506.445312 377.832031 515.773438 336.785156 510.613281 296.203125 C 505.457031 255.625 486.105469 217.839844 455.640625 188.855469 Z M 127.609375 313.148438 C 126.636719 314.066406 125.867188 315.15625 125.34375 316.355469 C 124.820312 317.550781 124.550781 318.835938 124.550781 320.132812 C 124.902344 353.398438 134.84375 385.941406 153.296875 414.265625 C 153.714844 414.90625 153.910156 415.660156 153.847656 416.410156 C 153.789062 417.164062 153.480469 417.878906 152.964844 418.453125 C 152.449219 419.03125 151.753906 419.4375 150.980469 419.617188 C 150.203125 419.796875 149.390625 419.742188 148.648438 419.457031 C 134.777344 413.9375 122.175781 405.914062 111.546875 395.835938 C 89.769531 375.230469 77.523438 347.289062 77.503906 318.148438 C 77.484375 289.011719 89.691406 261.054688 111.441406 240.421875 L 256.007812 103.683594 L 400.566406 240.421875 C 422.324219 261.050781 434.535156 289.007812 434.511719 318.148438 C 434.496094 347.289062 422.25 375.230469 400.46875 395.835938 C 389.839844 405.914062 377.238281 413.9375 363.367188 419.457031 C 362.625 419.742188 361.8125 419.796875 361.035156 419.617188 C 360.261719 419.4375 359.566406 419.027344 359.050781 418.453125 C 358.535156 417.878906 358.222656 417.164062 358.164062 416.410156 C 358.105469 415.65625 358.300781 414.902344 358.71875 414.261719 C 377.175781 385.941406 387.121094 353.398438 387.480469 320.132812 C 387.480469 318.835938 387.207031 317.550781 386.679688 316.351562 C 386.152344 315.152344 385.382812 314.0625 384.40625 313.144531 L 316.03125 244.539062 C 315.347656 244 314.492188 243.707031 313.605469 243.707031 C 312.71875 243.707031 311.859375 244 311.179688 244.539062 C 310.5 245.074219 310.039062 245.820312 309.882812 246.644531 C 309.722656 247.472656 309.875 248.320312 310.3125 249.050781 C 336.867188 294.511719 314.03125 359.808594 275.949219 395.835938 L 275.75 396.027344 C 270.492188 400.945312 263.394531 403.703125 256.003906 403.699219 C 248.609375 403.695312 241.515625 400.933594 236.261719 396.015625 L 236.078125 395.835938 C 197.980469 359.808594 175.15625 294.519531 201.71875 249.058594 C 202.15625 248.328125 202.308594 247.480469 202.148438 246.65625 C 201.988281 245.832031 201.527344 245.082031 200.847656 244.546875 C 200.167969 244.011719 199.308594 243.714844 198.425781 243.714844 C 197.539062 243.714844 196.679688 244.011719 196 244.546875 Z M 127.609375 313.148438 "/>
</g>
</svg>
